<svg id="svg" version="1.1" width="400" height="400" xmlns="http://www.w3.org/2000/svg" xmlns:xlink="http://www.w3.org/1999/xlink" style="display: block;"><g id="svgg"><path id="path0" d="M193.400 99.029 C 184.357 101.192,177.937 106.423,174.780 114.200 C 169.278 127.755,178.471 143.993,192.900 146.206 C 194.629 146.471,194.649 146.566,193.775 150.318 C 193.431 151.793,192.981 153.765,192.775 154.700 C 191.405 160.912,190.778 163.687,190.400 165.200 C 190.015 166.742,189.159 170.533,188.028 175.700 C 187.823 176.635,187.469 178.210,187.241 179.200 C 187.013 180.190,186.451 182.710,185.992 184.800 C 185.533 186.890,184.998 189.230,184.804 190.000 C 184.439 191.445,183.821 194.136,183.172 197.100 C 182.379 200.724,181.936 202.654,181.587 204.000 C 181.387 204.770,180.115 210.350,178.760 216.400 C 176.227 227.716,176.018 228.654,175.201 232.400 C 174.390 236.119,173.938 238.132,173.539 239.800 C 173.328 240.680,173.019 242.120,172.852 243.000 C 172.684 243.880,172.310 245.039,172.019 245.576 L 171.490 246.552 170.717 245.576 C 170.036 244.717,166.516 240.568,156.665 229.009 C 155.161 227.244,153.557 225.350,153.101 224.800 C 152.645 224.250,151.715 223.161,151.036 222.380 C 150.356 221.598,148.973 219.978,147.961 218.780 C 144.791 215.022,125.158 191.917,122.996 189.400 C 121.862 188.080,119.880 185.740,118.591 184.200 C 117.301 182.660,116.146 181.310,116.022 181.200 C 115.899 181.090,114.449 179.380,112.800 177.400 C 111.151 175.420,109.700 173.710,109.576 173.600 C 109.205 173.272,103.043 165.985,102.490 165.222 C 101.802 164.272,102.153 163.624,104.130 162.187 C 120.930 149.978,108.239 120.425,87.297 122.990 C 59.727 126.367,61.501 167.200,89.218 167.200 C 92.598 167.200,94.038 166.962,96.686 165.964 C 97.853 165.524,98.051 165.910,98.430 169.357 C 98.602 170.921,98.949 173.730,99.200 175.600 C 99.451 177.470,99.811 180.260,100.000 181.800 C 100.189 183.340,100.547 186.130,100.797 188.000 C 101.047 189.870,101.420 192.660,101.625 194.200 C 101.831 195.740,102.180 198.440,102.400 200.200 C 102.620 201.960,102.980 204.750,103.200 206.400 C 103.420 208.050,103.779 210.840,103.999 212.600 C 104.618 217.567,105.127 221.509,105.599 225.000 C 105.837 226.760,106.210 229.640,106.428 231.400 C 106.646 233.160,106.999 235.950,107.213 237.600 C 107.427 239.250,107.782 242.040,108.001 243.800 C 108.221 245.560,108.569 248.260,108.775 249.800 C 108.980 251.340,109.332 254.040,109.556 255.800 C 110.947 266.730,112.883 281.816,113.202 284.200 C 113.408 285.740,113.861 289.430,114.208 292.400 C 114.556 295.370,114.967 298.520,115.122 299.400 L 115.404 301.000 201.802 301.000 L 288.200 301.000 288.472 299.000 C 288.995 295.148,291.233 277.771,291.589 274.800 C 291.939 271.879,293.354 260.888,294.576 251.600 C 295.426 245.143,297.058 232.329,297.787 226.400 C 298.125 223.650,298.576 220.140,298.788 218.600 C 299.001 217.060,299.372 214.270,299.612 212.400 C 300.169 208.067,300.733 203.757,301.209 200.200 C 301.415 198.660,301.775 195.780,302.010 193.800 C 302.245 191.820,302.611 188.940,302.825 187.400 C 303.600 181.815,303.975 178.928,304.410 175.200 C 304.654 173.110,305.040 170.170,305.269 168.666 L 305.684 165.931 307.981 166.198 C 320.954 167.703,333.600 155.799,333.600 142.080 C 333.600 120.401,306.946 109.799,292.058 125.557 C 281.429 136.808,283.925 155.712,296.919 162.363 C 297.953 162.892,298.800 163.513,298.800 163.741 C 298.800 164.089,275.419 199.400,274.791 200.000 C 274.590 200.192,273.450 201.889,272.605 203.254 C 270.359 206.882,243.443 246.717,242.809 247.351 C 242.414 247.746,241.392 245.648,238.738 239.000 C 237.859 236.800,236.684 233.920,236.126 232.600 C 235.567 231.280,234.969 229.840,234.795 229.400 C 234.622 228.960,234.102 227.747,233.640 226.704 C 233.178 225.662,232.800 224.573,232.800 224.284 C 232.800 223.996,232.648 223.589,232.462 223.380 C 232.277 223.171,231.709 221.920,231.200 220.600 C 230.691 219.280,230.123 218.029,229.938 217.820 C 229.752 217.611,229.600 217.211,229.600 216.930 C 229.600 216.650,229.060 215.241,228.400 213.800 C 227.740 212.359,227.200 210.950,227.200 210.670 C 227.200 210.389,227.049 209.989,226.864 209.780 C 226.679 209.571,226.325 208.860,226.076 208.200 C 225.433 206.494,218.080 188.402,217.541 187.200 C 217.295 186.650,216.961 185.840,216.800 185.400 C 216.447 184.435,215.889 183.079,215.074 181.200 C 214.740 180.430,213.355 177.010,211.997 173.600 C 210.638 170.190,209.210 166.680,208.822 165.800 C 206.148 159.727,201.538 147.539,201.728 147.044 C 201.854 146.714,202.642 146.317,203.479 146.162 C 221.160 142.878,227.586 117.866,213.953 105.396 C 208.702 100.593,199.185 97.645,193.400 99.029 " stroke="none" fill="#ffffff" fill-rule="evenodd"></path><path id="path1" d="" stroke="none" fill="#993300" fill-rule="evenodd"></path><path id="path2" d="M183.400 101.222 C 182.326 101.526,177.776 102.612,173.400 103.608 C 172.520 103.808,169.550 104.499,166.800 105.144 C 164.050 105.788,160.180 106.685,158.200 107.138 C 156.220 107.591,151.810 108.609,148.400 109.400 C 144.990 110.191,140.580 111.204,138.600 111.652 C 136.620 112.100,133.110 112.913,130.800 113.459 C 128.490 114.006,125.520 114.700,124.200 115.003 C 122.880 115.306,120.180 115.929,118.200 116.389 C 116.220 116.848,112.980 117.595,111.000 118.049 C 109.020 118.503,106.770 119.033,106.000 119.227 C 105.230 119.421,102.890 119.960,100.800 120.424 C 98.710 120.889,96.478 121.434,95.840 121.635 C 95.202 121.836,94.223 122.000,93.664 122.000 C 92.684 122.000,92.675 122.021,93.424 122.587 C 93.851 122.910,94.607 123.180,95.105 123.187 C 95.603 123.194,96.323 123.361,96.705 123.558 C 97.087 123.755,98.624 124.506,100.119 125.228 C 104.403 127.294,108.006 131.152,110.366 136.200 C 110.881 137.300,111.504 138.632,111.751 139.161 C 112.405 140.560,112.336 150.248,111.659 152.000 C 110.787 154.256,109.424 156.989,109.100 157.133 C 108.935 157.207,108.800 157.487,108.800 157.755 C 108.800 158.230,105.023 162.282,103.248 163.711 L 102.365 164.423 105.033 167.511 C 106.500 169.210,108.602 171.630,109.704 172.888 C 110.806 174.146,111.978 175.562,112.309 176.035 C 112.640 176.507,113.502 177.548,114.225 178.347 C 114.947 179.146,117.809 182.500,120.586 185.800 C 123.362 189.100,126.030 192.256,126.516 192.814 C 127.002 193.372,128.389 194.992,129.598 196.414 C 130.806 197.836,131.890 199.090,132.006 199.200 C 132.123 199.310,133.114 200.477,134.209 201.794 C 135.304 203.111,136.810 204.862,137.556 205.686 C 138.302 206.509,139.192 207.592,139.534 208.091 C 139.876 208.591,140.439 209.270,140.785 209.600 C 141.131 209.930,142.219 211.190,143.202 212.400 C 144.185 213.610,145.091 214.690,145.215 214.800 C 145.339 214.910,147.116 216.980,149.163 219.400 C 153.524 224.555,154.509 225.709,156.168 227.614 C 156.846 228.392,158.210 230.001,159.200 231.190 C 161.346 233.766,165.710 238.886,168.549 242.157 C 169.674 243.453,170.786 244.775,171.021 245.096 C 171.479 245.723,171.867 244.743,172.800 240.600 C 173.048 239.500,173.411 237.970,173.606 237.200 C 173.802 236.430,174.070 235.260,174.203 234.600 C 174.335 233.940,174.621 232.590,174.839 231.600 C 175.057 230.610,175.330 229.260,175.445 228.600 C 175.560 227.940,175.810 227.040,176.000 226.600 C 176.190 226.160,176.439 225.260,176.553 224.600 C 176.826 223.016,177.492 219.837,178.019 217.600 C 178.253 216.610,178.614 215.035,178.822 214.100 C 179.030 213.165,179.370 211.635,179.578 210.700 C 179.786 209.765,180.128 208.280,180.338 207.400 C 180.548 206.520,180.936 204.810,181.200 203.600 C 181.464 202.390,181.824 200.770,182.000 200.000 C 182.176 199.230,182.509 197.700,182.742 196.600 C 182.974 195.500,183.807 191.810,184.594 188.400 C 185.381 184.990,186.182 181.480,186.373 180.600 C 187.002 177.714,188.492 171.033,188.872 169.400 C 189.076 168.520,189.403 167.080,189.599 166.200 C 190.090 163.987,190.804 160.906,191.268 159.000 C 191.482 158.120,191.746 156.770,191.854 156.000 C 191.961 155.230,192.206 154.240,192.398 153.800 C 192.773 152.938,193.126 151.188,193.464 148.525 L 193.677 146.851 192.138 146.595 C 183.904 145.227,177.221 139.120,173.541 129.600 C 172.796 127.671,172.800 117.911,173.547 116.000 C 176.121 109.417,179.198 105.331,183.946 102.188 C 186.187 100.705,186.054 100.470,183.400 101.222 M292.600 122.004 C 291.500 122.403,288.440 123.390,285.800 124.199 C 283.160 125.008,279.830 126.043,278.400 126.498 C 272.796 128.284,268.825 129.536,264.800 130.789 C 262.490 131.508,260.240 132.242,259.800 132.420 C 259.360 132.598,256.570 133.493,253.600 134.409 C 250.630 135.325,247.210 136.399,246.000 136.796 C 244.790 137.193,240.920 138.422,237.400 139.526 C 223.658 143.836,216.509 146.095,214.400 146.793 C 213.190 147.193,210.310 148.108,208.000 148.825 C 205.690 149.542,203.665 150.244,203.499 150.385 C 203.240 150.606,204.631 154.465,206.677 159.200 C 207.430 160.945,208.005 162.335,208.454 163.500 C 208.644 163.995,208.956 164.805,209.146 165.300 C 209.604 166.488,210.182 167.886,210.926 169.600 C 211.259 170.370,212.025 172.260,212.626 173.800 C 213.227 175.340,213.872 176.771,214.060 176.980 C 214.247 177.189,214.400 177.589,214.400 177.868 C 214.400 178.148,214.833 179.327,215.362 180.488 C 215.891 181.650,216.966 184.249,217.751 186.264 C 218.536 188.279,219.478 190.619,219.845 191.464 C 220.211 192.309,220.666 193.405,220.855 193.900 C 221.684 196.064,221.919 196.663,222.346 197.700 C 222.596 198.305,222.962 199.205,223.160 199.700 C 223.358 200.195,223.898 201.453,224.360 202.496 C 224.822 203.538,225.200 204.485,225.200 204.600 C 225.200 204.715,225.578 205.662,226.040 206.704 C 226.502 207.747,227.042 209.005,227.240 209.500 C 227.438 209.995,227.762 210.805,227.959 211.300 C 228.157 211.795,228.589 212.830,228.919 213.600 C 229.250 214.370,231.625 220.220,234.198 226.600 C 239.227 239.071,239.869 240.625,240.434 241.695 C 240.635 242.077,240.800 242.642,240.800 242.952 C 240.800 244.436,242.146 243.727,245.751 240.344 C 249.656 236.679,251.434 234.186,268.676 208.200 C 269.843 206.440,270.977 204.785,271.195 204.521 C 271.414 204.258,275.563 198.048,280.415 190.721 C 285.268 183.395,289.500 177.083,289.819 176.695 C 290.139 176.308,290.400 175.841,290.400 175.657 C 290.400 175.474,290.760 174.998,291.200 174.600 C 291.640 174.202,292.000 173.649,292.000 173.371 C 292.000 173.094,292.150 172.807,292.332 172.733 C 292.667 172.599,297.089 166.129,297.922 164.555 C 298.327 163.790,298.192 163.619,296.508 162.755 C 281.910 155.266,281.036 132.439,294.960 122.332 C 296.862 120.951,295.883 120.815,292.600 122.004 M75.400 126.282 C 73.222 126.798,65.898 128.511,63.600 129.042 C 62.170 129.373,59.470 130.003,57.600 130.444 C 55.730 130.884,53.480 131.404,52.600 131.600 C 51.720 131.796,49.470 132.316,47.600 132.754 C 45.730 133.193,43.210 133.766,42.000 134.026 C 40.790 134.286,39.350 134.638,38.800 134.807 C 38.250 134.976,36.720 135.339,35.400 135.614 C 34.080 135.888,31.740 136.424,30.200 136.805 C 28.660 137.185,25.555 137.913,23.300 138.423 L 19.200 139.349 19.200 252.075 L 19.200 364.800 20.207 364.800 C 20.761 364.800,22.516 364.460,24.107 364.045 C 25.698 363.629,29.520 362.709,32.600 361.999 C 35.680 361.290,40.810 360.090,44.000 359.334 C 47.190 358.577,51.240 357.618,53.000 357.203 C 60.057 355.536,66.675 353.948,68.000 353.603 C 69.448 353.226,75.244 351.860,78.400 351.153 C 79.390 350.931,80.830 350.587,81.600 350.388 C 82.370 350.189,84.935 349.570,87.300 349.013 C 89.665 348.456,93.445 347.560,95.700 347.022 C 111.979 343.140,122.351 340.688,126.400 339.764 C 127.830 339.438,129.630 339.009,130.400 338.811 C 131.170 338.613,132.700 338.248,133.800 338.000 C 134.900 337.752,136.430 337.389,137.200 337.194 C 137.970 336.998,140.130 336.480,142.000 336.042 C 143.870 335.605,147.740 334.686,150.600 334.000 C 153.460 333.314,157.240 332.413,159.000 331.997 C 160.760 331.581,164.090 330.790,166.400 330.239 C 179.769 327.050,184.423 325.943,190.000 324.624 C 193.410 323.817,197.280 322.906,198.600 322.600 C 204.715 321.181,211.529 319.560,212.800 319.222 C 213.570 319.018,215.100 318.648,216.200 318.400 C 217.300 318.152,218.830 317.792,219.600 317.600 C 220.370 317.408,221.900 317.048,223.000 316.800 C 224.100 316.552,225.630 316.187,226.400 315.987 C 227.170 315.788,229.330 315.269,231.200 314.834 C 233.070 314.399,236.535 313.583,238.900 313.021 C 246.197 311.288,251.652 309.996,255.200 309.161 C 263.303 307.254,276.243 304.146,280.110 303.178 C 281.821 302.750,283.606 302.400,284.077 302.400 C 284.548 302.400,284.798 302.265,284.633 302.100 C 284.468 301.935,246.233 301.710,199.667 301.600 L 115.000 301.400 114.714 299.400 C 114.556 298.300,114.239 295.960,114.008 294.200 C 113.778 292.440,113.408 289.650,113.186 288.000 C 112.963 286.350,112.611 283.650,112.403 282.000 C 112.195 280.350,111.834 277.560,111.600 275.800 C 111.366 274.040,111.001 271.205,110.788 269.500 C 110.302 265.612,109.712 261.081,109.187 257.200 C 108.397 251.356,107.496 244.362,106.844 239.000 C 106.603 237.020,106.236 234.140,106.028 232.600 C 105.821 231.060,105.467 228.360,105.241 226.600 C 104.379 219.877,103.210 210.872,102.800 207.800 C 102.566 206.040,102.121 202.477,101.812 199.882 C 100.747 190.931,99.975 184.993,99.588 182.776 C 99.375 181.553,99.200 179.944,99.200 179.200 C 99.200 178.456,99.028 176.847,98.818 175.624 C 98.608 174.401,98.230 171.960,97.977 170.200 C 97.398 166.162,97.603 166.370,94.900 167.082 C 72.595 172.959,57.376 145.895,73.541 129.100 C 74.547 128.055,75.525 127.200,75.714 127.200 C 75.903 127.200,76.327 126.930,76.657 126.600 C 77.295 125.962,77.034 125.895,75.400 126.282 " stroke="none" fill="#da5528" fill-rule="evenodd"></path><path id="path3" d="" stroke="none" fill="#ff0000" fill-rule="evenodd"></path><path id="path4" d="M26.400 19.600 C 26.400 19.820,26.040 20.000,25.600 20.000 C 25.160 20.000,24.800 20.180,24.800 20.400 C 24.800 20.620,24.509 20.800,24.153 20.800 C 23.445 20.800,21.346 22.981,20.977 24.100 C 20.850 24.485,20.578 24.800,20.373 24.800 C 20.168 24.800,20.000 25.340,20.000 26.000 C 20.000 26.660,19.820 27.200,19.600 27.200 C 19.335 27.200,19.200 46.133,19.200 83.200 C 19.200 122.801,19.326 139.200,19.629 139.200 C 19.865 139.200,21.620 138.831,23.529 138.380 C 32.291 136.311,33.915 135.931,35.600 135.553 C 36.590 135.331,38.030 134.992,38.800 134.800 C 39.570 134.608,41.010 134.269,42.000 134.047 C 42.990 133.825,45.420 133.264,47.400 132.800 C 49.380 132.336,51.720 131.796,52.600 131.600 C 53.480 131.404,55.730 130.884,57.600 130.444 C 59.470 130.003,62.170 129.373,63.600 129.042 C 65.030 128.712,68.090 127.999,70.400 127.459 C 76.330 126.072,77.525 125.866,76.812 126.354 C 76.488 126.575,76.318 126.852,76.434 126.968 C 76.550 127.084,77.297 126.736,78.093 126.195 C 87.748 119.634,102.465 123.408,108.713 134.046 C 114.306 143.570,112.234 156.298,104.130 162.187 C 102.153 163.624,101.802 164.272,102.490 165.222 C 103.043 165.985,109.205 173.272,109.576 173.600 C 109.700 173.710,111.151 175.420,112.800 177.400 C 114.449 179.380,115.899 181.090,116.022 181.200 C 116.146 181.310,117.301 182.660,118.591 184.200 C 119.880 185.740,121.862 188.080,122.996 189.400 C 125.158 191.917,144.791 215.022,147.961 218.780 C 148.973 219.978,150.356 221.598,151.036 222.380 C 151.715 223.161,152.645 224.250,153.101 224.800 C 153.557 225.350,155.161 227.244,156.665 229.009 C 166.516 240.568,170.036 244.717,170.717 245.576 L 171.490 246.552 172.019 245.576 C 172.310 245.039,172.684 243.880,172.852 243.000 C 173.019 242.120,173.328 240.680,173.538 239.800 C 173.748 238.920,174.135 237.210,174.399 236.000 C 174.663 234.790,175.059 232.990,175.279 232.000 C 175.499 231.010,175.818 229.570,175.988 228.800 C 176.157 228.030,177.400 222.558,178.748 216.640 C 180.097 210.722,181.200 205.607,181.200 205.273 C 181.200 204.188,180.810 205.021,180.377 207.033 C 179.974 208.907,179.673 210.274,178.822 214.100 C 178.614 215.035,178.253 216.610,178.019 217.600 C 177.492 219.837,176.826 223.016,176.553 224.600 C 176.439 225.260,176.190 226.160,176.000 226.600 C 175.810 227.040,175.560 227.940,175.445 228.600 C 175.330 229.260,175.057 230.610,174.839 231.600 C 174.621 232.590,174.335 233.940,174.203 234.600 C 174.070 235.260,173.802 236.430,173.606 237.200 C 173.411 237.970,173.048 239.500,172.800 240.600 C 171.867 244.743,171.479 245.723,171.021 245.096 C 170.786 244.775,169.674 243.453,168.549 242.157 C 165.710 238.886,161.346 233.766,159.200 231.190 C 158.210 230.001,156.846 228.392,156.168 227.614 C 154.509 225.709,153.524 224.555,149.163 219.400 C 147.116 216.980,145.339 214.910,145.215 214.800 C 145.091 214.690,144.185 213.610,143.202 212.400 C 142.219 211.190,141.131 209.930,140.785 209.600 C 140.439 209.270,139.876 208.591,139.534 208.091 C 139.192 207.592,138.302 206.509,137.556 205.686 C 136.810 204.862,135.304 203.111,134.209 201.794 C 133.114 200.477,132.123 199.310,132.006 199.200 C 131.890 199.090,130.806 197.836,129.598 196.414 C 128.389 194.992,127.002 193.372,126.516 192.814 C 126.030 192.256,123.362 189.100,120.586 185.800 C 117.809 182.500,114.947 179.146,114.225 178.347 C 113.502 177.548,112.640 176.507,112.309 176.035 C 111.978 175.562,110.806 174.146,109.704 172.888 C 108.602 171.630,106.500 169.210,105.033 167.511 L 102.365 164.423 103.248 163.711 C 105.023 162.282,108.800 158.230,108.800 157.755 C 108.800 157.487,108.935 157.207,109.100 157.133 C 109.424 156.989,110.787 154.256,111.659 152.000 C 112.336 150.248,112.405 140.560,111.751 139.161 C 111.504 138.632,110.881 137.300,110.366 136.200 C 108.006 131.152,104.403 127.294,100.119 125.228 C 98.624 124.506,97.087 123.755,96.705 123.558 C 96.323 123.361,95.603 123.194,95.105 123.187 C 94.607 123.180,93.851 122.910,93.424 122.587 C 92.675 122.021,92.684 122.000,93.664 122.000 C 94.223 122.000,95.202 121.836,95.840 121.635 C 96.478 121.434,98.710 120.889,100.800 120.424 C 102.890 119.960,105.230 119.421,106.000 119.227 C 106.770 119.033,109.020 118.503,111.000 118.049 C 112.980 117.595,116.220 116.848,118.200 116.389 C 120.180 115.929,122.880 115.306,124.200 115.003 C 125.520 114.700,128.490 114.006,130.800 113.459 C 133.110 112.913,136.620 112.100,138.600 111.652 C 140.580 111.204,144.990 110.191,148.400 109.400 C 151.810 108.609,156.220 107.591,158.200 107.138 C 160.180 106.685,164.050 105.788,166.800 105.144 C 169.550 104.499,172.520 103.808,173.400 103.608 C 177.653 102.639,182.352 101.525,183.739 101.155 C 185.852 100.591,185.914 100.886,183.955 102.183 C 179.197 105.331,176.123 109.413,173.547 116.000 C 172.800 117.911,172.796 127.671,173.541 129.600 C 177.221 139.120,183.904 145.227,192.138 146.595 L 193.677 146.851 193.464 148.525 C 193.126 151.188,192.773 152.938,192.398 153.800 C 192.206 154.240,191.962 155.230,191.855 156.000 C 191.676 157.286,191.398 158.568,190.339 163.000 C 190.128 163.880,189.796 165.320,189.600 166.200 C 189.404 167.080,189.076 168.520,188.872 169.400 C 188.492 171.033,187.002 177.714,186.373 180.600 C 186.182 181.480,185.381 184.990,184.594 188.400 C 183.807 191.810,182.974 195.500,182.742 196.600 C 182.509 197.700,182.156 199.320,181.957 200.200 C 181.757 201.080,181.501 202.430,181.387 203.200 C 181.082 205.272,181.795 203.538,182.374 200.800 C 182.630 199.590,183.010 197.835,183.220 196.900 C 183.429 195.965,183.791 194.345,184.025 193.300 C 184.259 192.255,184.610 190.770,184.804 190.000 C 184.998 189.230,185.533 186.890,185.992 184.800 C 186.451 182.710,187.000 180.235,187.213 179.300 C 187.880 176.371,188.442 173.863,188.828 172.100 C 189.559 168.760,190.056 166.579,190.400 165.200 C 190.592 164.430,190.928 162.990,191.147 162.000 C 192.428 156.196,193.067 153.355,193.775 150.318 C 194.649 146.566,194.629 146.471,192.900 146.206 C 178.471 143.993,169.278 127.755,174.780 114.200 C 182.024 96.356,206.533 93.464,217.164 109.200 C 226.571 123.125,219.117 143.258,203.479 146.162 C 202.642 146.317,201.854 146.714,201.728 147.044 C 201.538 147.539,206.148 159.727,208.822 165.800 C 209.210 166.680,210.638 170.190,211.997 173.600 C 213.355 177.010,214.740 180.430,215.074 181.200 C 215.408 181.970,215.819 182.960,215.987 183.400 C 216.267 184.132,216.746 185.284,217.648 187.400 C 218.312 188.954,225.630 207.017,226.076 208.200 C 226.325 208.860,226.679 209.571,226.864 209.780 C 227.049 209.989,227.200 210.389,227.200 210.670 C 227.200 210.950,227.740 212.359,228.400 213.800 C 229.060 215.241,229.600 216.650,229.600 216.930 C 229.600 217.211,229.752 217.611,229.938 217.820 C 230.123 218.029,230.691 219.280,231.200 220.600 C 231.709 221.920,232.277 223.171,232.462 223.380 C 232.648 223.589,232.800 223.996,232.800 224.284 C 232.800 224.573,233.178 225.662,233.640 226.704 C 234.102 227.747,234.622 228.960,234.795 229.400 C 234.969 229.840,235.567 231.280,236.126 232.600 C 236.684 233.920,237.859 236.800,238.738 239.000 C 241.392 245.648,242.414 247.746,242.809 247.351 C 243.443 246.717,270.359 206.882,272.605 203.254 C 273.450 201.889,274.590 200.192,274.791 200.000 C 275.419 199.400,298.800 164.089,298.800 163.741 C 298.800 163.513,297.953 162.892,296.919 162.363 C 283.925 155.712,281.429 136.808,292.058 125.557 C 306.946 109.799,333.600 120.401,333.600 142.080 C 333.600 155.799,320.954 167.703,307.981 166.198 L 305.684 165.931 305.269 168.666 C 305.040 170.170,304.654 173.110,304.410 175.200 C 303.975 178.928,303.600 181.815,302.825 187.400 C 302.611 188.940,302.245 191.820,302.010 193.800 C 301.775 195.780,301.413 198.660,301.204 200.200 C 300.995 201.740,300.628 204.530,300.388 206.400 C 299.507 213.255,299.192 215.661,298.801 218.500 C 298.581 220.095,298.125 223.650,297.787 226.400 C 297.058 232.329,295.426 245.143,294.576 251.600 C 293.354 260.888,291.939 271.879,291.589 274.800 C 291.233 277.771,288.995 295.148,288.472 299.000 L 288.200 301.000 201.818 301.000 L 115.436 301.000 115.140 300.000 C 114.863 299.069,114.848 299.082,114.922 300.200 L 115.000 301.400 199.667 301.600 C 246.233 301.710,284.468 301.935,284.633 302.100 C 284.798 302.265,284.548 302.400,284.077 302.400 C 283.606 302.400,281.821 302.750,280.110 303.178 C 276.177 304.163,263.991 307.089,254.200 309.400 C 247.332 311.021,243.756 311.868,239.000 312.998 C 236.580 313.572,233.070 314.399,231.200 314.834 C 229.330 315.269,227.170 315.788,226.400 315.987 C 225.630 316.187,224.100 316.552,223.000 316.800 C 221.900 317.048,220.370 317.408,219.600 317.600 C 218.830 317.792,217.300 318.152,216.200 318.400 C 215.100 318.648,213.570 319.018,212.800 319.222 C 211.529 319.560,204.715 321.181,198.600 322.600 C 197.280 322.906,193.410 323.817,190.000 324.624 C 184.423 325.943,179.769 327.050,166.400 330.239 C 164.090 330.790,160.760 331.581,159.000 331.997 C 157.240 332.413,153.460 333.314,150.600 334.000 C 147.740 334.686,143.870 335.605,142.000 336.042 C 140.130 336.480,137.970 336.998,137.200 337.194 C 136.430 337.389,134.900 337.752,133.800 338.000 C 132.700 338.248,131.170 338.613,130.400 338.811 C 129.630 339.009,127.830 339.438,126.400 339.764 C 124.970 340.090,121.010 341.015,117.600 341.820 C 111.991 343.143,108.479 343.977,95.800 346.997 C 93.600 347.521,89.820 348.417,87.400 348.988 C 84.980 349.559,82.370 350.189,81.600 350.388 C 80.830 350.587,79.390 350.931,78.400 351.153 C 75.244 351.860,69.448 353.226,68.000 353.603 C 66.675 353.948,60.057 355.536,53.000 357.203 C 51.240 357.618,47.190 358.577,44.000 359.334 C 40.810 360.090,35.680 361.290,32.600 361.999 C 29.520 362.709,25.698 363.629,24.107 364.045 C 22.516 364.460,20.761 364.800,20.207 364.800 L 19.200 364.800 19.200 368.800 C 19.200 371.200,19.360 372.800,19.600 372.800 C 19.820 372.800,20.000 373.340,20.000 374.000 C 20.000 374.660,20.180 375.200,20.400 375.200 C 20.620 375.200,20.800 375.452,20.800 375.760 C 20.800 376.488,23.512 379.200,24.240 379.200 C 24.548 379.200,24.800 379.380,24.800 379.600 C 24.800 379.820,25.160 380.000,25.600 380.000 C 26.040 380.000,26.400 380.180,26.400 380.400 C 26.400 380.666,84.667 380.800,200.400 380.800 C 316.133 380.800,374.400 380.666,374.400 380.400 C 374.400 380.180,374.678 380.000,375.017 380.000 C 376.141 380.000,380.000 376.296,380.000 375.217 C 380.000 374.988,380.180 374.800,380.400 374.800 C 380.620 374.800,380.800 374.170,380.800 373.400 C 380.800 372.630,380.980 372.000,381.200 372.000 C 381.466 372.000,381.600 314.400,381.600 200.000 C 381.600 85.600,381.466 28.000,381.200 28.000 C 380.980 28.000,380.800 27.548,380.800 26.995 C 380.800 26.112,380.189 24.587,379.599 24.000 C 379.489 23.890,379.144 23.305,378.832 22.700 C 378.520 22.095,378.059 21.600,377.808 21.600 C 377.556 21.600,376.964 21.240,376.492 20.800 C 376.020 20.360,375.356 20.000,375.017 20.000 C 374.678 20.000,374.400 19.820,374.400 19.600 C 374.400 19.334,316.133 19.200,200.400 19.200 C 84.667 19.200,26.400 19.334,26.400 19.600 M294.960 122.332 C 281.036 132.439,281.910 155.266,296.508 162.755 C 298.192 163.619,298.327 163.790,297.922 164.555 C 297.089 166.129,292.667 172.599,292.332 172.733 C 292.150 172.807,292.000 173.094,292.000 173.371 C 292.000 173.649,291.640 174.202,291.200 174.600 C 290.760 174.998,290.400 175.474,290.400 175.657 C 290.400 175.841,290.139 176.308,289.819 176.695 C 289.500 177.083,285.268 183.395,280.415 190.721 C 275.563 198.048,271.414 204.258,271.195 204.521 C 270.977 204.785,269.843 206.440,268.676 208.200 C 251.434 234.186,249.656 236.679,245.751 240.344 C 242.146 243.727,240.800 244.436,240.800 242.952 C 240.800 242.642,240.635 242.077,240.434 241.695 C 239.869 240.625,239.227 239.071,234.198 226.600 C 231.625 220.220,229.250 214.370,228.919 213.600 C 228.589 212.830,228.157 211.795,227.959 211.300 C 227.762 210.805,227.438 209.995,227.240 209.500 C 227.042 209.005,226.502 207.747,226.040 206.704 C 225.578 205.662,225.200 204.715,225.200 204.600 C 225.200 204.485,224.822 203.538,224.360 202.496 C 223.898 201.453,223.358 200.195,223.160 199.700 C 222.962 199.205,222.596 198.305,222.346 197.700 C 221.919 196.663,221.684 196.064,220.855 193.900 C 220.666 193.405,220.211 192.309,219.845 191.464 C 219.478 190.619,218.536 188.279,217.751 186.264 C 216.966 184.249,215.891 181.650,215.362 180.488 C 214.833 179.327,214.400 178.148,214.400 177.868 C 214.400 177.589,214.247 177.189,214.060 176.980 C 213.872 176.771,213.227 175.340,212.626 173.800 C 212.025 172.260,211.259 170.370,210.926 169.600 C 210.182 167.886,209.604 166.488,209.146 165.300 C 208.956 164.805,208.644 163.995,208.454 163.500 C 208.005 162.335,207.430 160.945,206.677 159.200 C 204.631 154.465,203.240 150.606,203.499 150.385 C 203.665 150.244,205.690 149.542,208.000 148.825 C 210.310 148.108,213.190 147.193,214.400 146.793 C 216.509 146.095,223.658 143.836,237.400 139.526 C 240.920 138.422,244.790 137.193,246.000 136.796 C 247.210 136.399,250.630 135.325,253.600 134.409 C 256.570 133.493,259.360 132.598,259.800 132.420 C 260.240 132.242,262.490 131.508,264.800 130.789 C 268.825 129.536,272.796 128.284,278.400 126.498 C 279.830 126.043,283.160 125.008,285.800 124.199 C 288.440 123.390,291.500 122.403,292.600 122.004 C 295.883 120.815,296.862 120.951,294.960 122.332 M73.541 129.100 C 57.364 145.907,72.596 172.959,94.925 167.076 C 97.493 166.399,97.324 166.280,97.937 169.200 L 98.314 171.000 98.357 169.326 C 98.423 166.740,97.832 165.528,96.711 165.952 C 88.825 168.942,79.700 166.927,73.629 160.857 C 65.066 152.294,65.027 139.174,73.537 129.950 C 76.383 126.866,76.386 126.144,73.541 129.100 M98.487 173.200 C 98.483 174.190,98.624 175.450,98.800 176.000 C 99.239 177.369,99.239 174.323,98.800 172.600 C 98.526 171.523,98.494 171.584,98.487 173.200 M99.287 179.400 C 99.283 180.500,99.424 181.850,99.600 182.400 C 100.035 183.759,100.035 180.310,99.600 178.600 C 99.339 177.575,99.294 177.691,99.287 179.400 M100.000 185.182 C 100.000 185.905,100.269 188.320,100.597 190.549 C 100.925 192.777,101.459 196.850,101.784 199.600 C 102.108 202.350,102.566 206.040,102.800 207.800 C 103.210 210.876,104.382 219.903,105.241 226.600 C 105.467 228.360,105.821 231.060,106.028 232.600 C 106.236 234.140,106.603 237.020,106.844 239.000 C 107.496 244.362,108.397 251.356,109.187 257.200 C 110.076 263.772,110.896 270.244,111.563 275.944 C 111.779 277.783,112.055 279.388,112.177 279.511 C 112.579 279.912,112.416 278.110,111.179 268.494 C 110.507 263.272,109.776 257.560,109.553 255.800 C 109.331 254.040,108.980 251.340,108.775 249.800 C 108.569 248.260,108.221 245.560,108.001 243.800 C 107.782 242.040,107.427 239.250,107.213 237.600 C 106.999 235.950,106.646 233.160,106.428 231.400 C 106.210 229.640,105.837 226.760,105.599 225.000 C 105.127 221.509,104.618 217.567,103.999 212.600 C 103.779 210.840,103.420 208.050,103.200 206.400 C 102.980 204.750,102.620 201.960,102.400 200.200 C 102.180 198.440,101.831 195.740,101.625 194.200 C 101.419 192.660,101.053 189.789,100.812 187.820 C 100.354 184.083,100.000 182.933,100.000 185.182 M112.599 282.400 C 112.829 286.216,113.459 291.192,113.748 291.482 C 114.283 292.016,113.926 288.364,112.823 282.000 L 112.442 279.800 112.599 282.400 M114.090 294.000 C 114.084 295.210,114.224 296.650,114.400 297.200 C 114.851 298.609,114.866 296.102,114.420 293.600 L 114.100 291.800 114.090 294.000 " stroke="none" fill="#f68b20" fill-rule="evenodd"></path></g></svg>